<?xml version="1.0" encoding="UTF-8"?><svg id="Layer_1" xmlns="http://www.w3.org/2000/svg" xmlns:xlink="http://www.w3.org/1999/xlink" viewBox="0 0 264.07 499.62"><defs><style>.cls-1{opacity:.5;}.cls-1,.cls-2,.cls-3,.cls-4,.cls-5,.cls-6,.cls-7,.cls-8{fill-rule:evenodd;}.cls-1,.cls-3,.cls-5,.cls-7{isolation:isolate;}.cls-1,.cls-9{fill:#37546b;}.cls-2{fill:#fff;}.cls-3{fill:url(#linear-gradient-2);}.cls-3,.cls-5{opacity:.75;}.cls-4{fill:#bb4271;}.cls-10{clip-path:url(#clippath);}.cls-11{fill:none;}.cls-5{fill:url(#linear-gradient-3);}.cls-12{fill:#fbfeff;}.cls-6{fill:#213648;}.cls-13{mask:url(#mask);}.cls-7{fill:url(#linear-gradient);fill-opacity:.65;opacity:.6;}.cls-8{fill:#2f433d;}.cls-14{fill:url(#linear-gradient-4);}</style><linearGradient id="linear-gradient" x1="132.12" y1="502" x2="132.12" y2="489.67" gradientTransform="translate(0 502) scale(1 -1)" gradientUnits="userSpaceOnUse"><stop offset="0" stop-color="#464646"/><stop offset=".23" stop-color="#989898"/><stop offset="1" stop-color="#fff"/></linearGradient><linearGradient id="linear-gradient-2" x1="261.66" y1="253.08" x2="252.14" y2="253.08" gradientTransform="translate(0 502) scale(1 -1)" gradientUnits="userSpaceOnUse"><stop offset="0" stop-color="#fff" stop-opacity="0"/><stop offset=".22" stop-color="#bbb"/><stop offset=".55" stop-color="#fff" stop-opacity="0"/><stop offset="1" stop-color="#fff" stop-opacity="0"/></linearGradient><linearGradient id="linear-gradient-3" x1="2.58" y1="253.08" x2="12.12" y2="253.08" xlink:href="#linear-gradient-2"/><mask id="mask" x="14.56" y="12.45" width="235.04" height="464.82" maskUnits="userSpaceOnUse"><g id="mask0_0_892"><path class="cls-2" d="M109.33,12.45H34.48c-11.17,0-19.31,7.57-19.31,17.45V452.45c0,12.88,12.58,24.3,26.8,24.3H222.37c13.7,0,26.8-11.5,26.8-24.3V31.04c0-11.84-8.84-18.52-19.31-18.59h-76.04c-.29,.05-5.51,2.18-7.72,7.57-2.21,5.38-6.65,9.68-11.51,9.68h-5.65c-2.31,0-8.4-2.23-11.48-9.68-3.08-7.44-7.84-7.52-8.13-7.57Z"/></g></mask><linearGradient id="linear-gradient-4" x1="132.08" y1="489.5" x2="132.08" y2="28.35" gradientTransform="translate(0 502) scale(1 -1)" gradientUnits="userSpaceOnUse"><stop offset="0" stop-color="#9db7cd"/><stop offset=".42" stop-color="#9bb3ca"/><stop offset=".72" stop-color="#567596"/><stop offset="1" stop-color="#495279"/></linearGradient><clipPath id="clippath"><rect class="cls-11" x="21.31" y="166.73" width="218.4" height="89.62"/></clipPath></defs><path class="cls-6" d="M35.99,.57H228.37c18.45,0,33.41,14.24,33.41,31.81V467.82c0,17.57-14.96,31.81-33.41,31.81H35.99c-18.45,0-33.41-14.24-33.41-31.81V32.38C2.58,14.81,17.54,.57,35.99,.57Z"/><path class="cls-7" d="M229.12,0H35.13C26.08,.55,17.72,4.66,10.07,12.33,14.99,8.06,23.77,2.35,35.37,2.35H228.88c11.6,0,20.37,5.71,25.29,9.98-7.65-7.67-16-11.78-25.06-12.33Z"/><path class="cls-3" d="M256.53,462.85V35c0-11.48-4.24-15.72-6.77-18.45-2.53-2.73-2.64-4.11,1-2.06,3.64,2.06,10.91,8.05,10.91,20.51V462.85c0,12.46-7.27,18.45-10.91,20.51-3.64,2.06-3.53,.67-1-2.06,2.53-2.73,6.77-6.97,6.77-18.45Z"/><path class="cls-5" d="M7.72,462.85V35c0-11.48,4.24-15.72,6.77-18.45,2.53-2.73,2.64-4.11-1-2.06-3.64,2.06-10.91,8.05-10.91,20.51V462.85c0,12.46,7.27,18.45,10.91,20.51,3.64,2.06,3.53,.67,1-2.06-2.53-2.73-6.77-6.97-6.77-18.45Z"/><path class="cls-8" d="M0,104.1c0-1.38,1.12-2.5,2.5-2.5s2.5,1.12,2.5,2.5v59.37c0,1.38-1.12,2.5-2.5,2.5s-2.5-1.12-2.5-2.5v-59.37Z"/><path class="cls-8" d="M259.08,156.6c0-1.38,1.12-2.5,2.5-2.5s2.5,1.12,2.5,2.5v41.96c0,1.38-1.12,2.5-2.5,2.5s-2.5-1.12-2.5-2.5v-41.96Z"/><path class="cls-2" d="M109.33,12.45H34.48c-11.17,0-19.31,7.57-19.31,17.45V452.45c0,12.88,12.58,24.3,26.8,24.3H222.37c13.7,0,26.8-11.5,26.8-24.3V31.04c0-11.84-8.84-18.52-19.31-18.59h-76.04c-.29,.05-5.51,2.18-7.72,7.57-2.21,5.38-6.65,9.68-11.51,9.68h-5.65c-2.31,0-8.4-2.23-11.48-9.68-3.08-7.44-7.84-7.52-8.13-7.57Z"/><g class="cls-13"><g><rect class="cls-14" x="14.56" y="12.5" width="235.04" height="464.76"/><path class="cls-2" d="M122.23,136.12v3.94h-17.1v-3.49c0-1.18,.22-2.19,.66-3.05,.44-.86,1.02-1.61,1.75-2.24,.72-.63,1.52-1.19,2.38-1.67,.86-.48,1.73-.93,2.6-1.36,.87-.43,1.67-.86,2.39-1.29,.73-.43,1.31-.91,1.75-1.45,.44-.53,.66-1.16,.66-1.89,0-.93-.32-1.69-.97-2.27-.65-.59-1.54-.88-2.66-.88s-2.16,.34-2.98,1.01c-.82,.67-1.32,1.69-1.51,3.04h-4.49c.02-1.47,.37-2.81,1.04-4.01,.67-1.2,1.68-2.15,3.02-2.86,1.34-.7,3.03-1.06,5.05-1.06,1.74,0,3.24,.29,4.5,.88,1.26,.59,2.24,1.4,2.92,2.45,.69,1.05,1.03,2.27,1.03,3.67,0,1.16-.21,2.17-.64,3.01-.43,.84-1,1.56-1.71,2.16-.71,.6-1.49,1.12-2.33,1.57-.85,.45-1.69,.86-2.54,1.25-.84,.39-1.62,.78-2.33,1.18-.71,.4-1.28,.85-1.71,1.35-.43,.5-.64,1.1-.64,1.81v.21h11.86Zm-22.39-19.21v23.14h-4.76v-17.34h-4.15v-2.64c1.33,0,2.41-.13,3.23-.38,.82-.25,1.44-.61,1.84-1.09,.41-.47,.65-1.04,.72-1.7h3.12Zm30.66,12v-5.01h-5.15v5.01h5.15Zm0,6.05v4.99h-5.15v-4.99h5.15Zm18.54,5.09v-5.12h3.59v-3.92h-3.59v-14.1h-4.62l-10.61,14.18v3.84h10.72l-.02,5.12h4.52Zm-10.88-9.04h6.37v-8.48l-6.37,8.48Zm25.35,9.4c2.04,0,3.79-.46,5.26-1.37,1.47-.91,2.6-2.29,3.39-4.13,.79-1.84,1.18-4.14,1.18-6.91,0-2.32-.38-4.33-1.15-6.04-.77-1.71-1.87-3.04-3.3-3.97-1.43-.93-3.14-1.4-5.11-1.4-1.76,0-3.29,.34-4.6,1.01-1.31,.67-2.33,1.6-3.06,2.78-.73,1.18-1.1,2.53-1.1,4.05s.35,2.8,1.04,3.9c.69,1.09,1.65,1.94,2.86,2.53,1.22,.59,2.61,.89,4.19,.89,.87,0,1.66-.11,2.36-.34,.71-.23,1.33-.55,1.86-.98,.53-.42,.95-.91,1.25-1.48,.13,1.85-.02,3.34-.44,4.48-.42,1.14-1.06,1.97-1.9,2.5-.84,.52-1.82,.79-2.94,.79-1.01,0-1.85-.28-2.51-.84-.66-.56-1.09-1.29-1.29-2.18h-4.47c.1,1.35,.54,2.54,1.34,3.55,.79,1.01,1.82,1.79,3.07,2.34,1.26,.56,2.61,.83,4.06,.83Zm-2.37-13.37c.71,.67,1.64,1,2.79,1,.65,0,1.29-.15,1.91-.44,.62-.29,1.12-.66,1.52-1.11,.4-.45,.59-.91,.59-1.39,.01-1.04-.15-1.92-.49-2.67-.34-.74-.81-1.31-1.42-1.7-.61-.39-1.31-.59-2.12-.59-.74,0-1.4,.17-1.98,.51-.58,.34-1.04,.82-1.37,1.44-.33,.62-.5,1.33-.5,2.14,0,1.21,.35,2.14,1.06,2.81Z"/></g></g><g class="cls-10"><g><path class="cls-12" d="M25.47,166.73H235.56c2.3,0,4.16,1.87,4.16,4.17v80.35c0,2.3-1.86,4.17-4.16,4.17H25.47c-2.3,0-4.16-1.87-4.16-4.17v-80.35c0-2.3,1.86-4.17,4.16-4.17Z"/><path class="cls-9" d="M37.68,202.81v-.89h5.69v.89h-2.29v6.65h-.97v-6.65h-2.43Zm6.73,6.65v-7.74h.94v3.15c.09-.15,.21-.29,.36-.42,.15-.13,.34-.24,.56-.32,.22-.08,.47-.13,.76-.13,.35,0,.67,.07,.95,.2,.28,.13,.51,.31,.68,.55,.17,.24,.25,.53,.25,.85v3.85h-.96v-3.66c0-.32-.11-.57-.33-.75-.22-.18-.5-.26-.86-.26-.24,0-.46,.04-.68,.12-.21,.08-.38,.2-.51,.35-.13,.16-.19,.36-.19,.6v3.6h-.96Zm6.68-2.47c0,.34,.06,.65,.17,.93,.11,.28,.29,.49,.51,.66,.23,.16,.52,.24,.87,.24s.64-.08,.88-.24c.25-.16,.41-.39,.48-.69h.91c-.07,.36-.21,.67-.44,.92-.23,.25-.5,.44-.82,.57-.32,.13-.65,.19-1,.19-.5,0-.94-.11-1.33-.33-.38-.22-.68-.53-.89-.94-.21-.41-.32-.9-.32-1.48s.1-1.06,.29-1.49c.19-.43,.47-.76,.84-1,.37-.24,.82-.36,1.34-.36s.93,.11,1.28,.33c.35,.22,.62,.53,.8,.93,.18,.4,.28,.87,.28,1.41v.35h-3.85Zm0-.65h2.92c0-.31-.05-.59-.16-.83-.1-.25-.26-.45-.48-.59-.21-.15-.48-.22-.8-.22s-.62,.08-.84,.24c-.22,.16-.38,.37-.49,.62-.11,.25-.16,.51-.16,.78Zm7.49,4.8v-7.07h.96v.94c.07-.11,.15-.23,.25-.35,.1-.12,.22-.23,.36-.34,.15-.1,.31-.19,.5-.26,.19-.06,.41-.1,.66-.1,.43,0,.81,.1,1.13,.3,.33,.2,.59,.49,.77,.9,.18,.4,.28,.91,.28,1.53s-.09,1.14-.27,1.57c-.18,.42-.43,.75-.77,.97-.34,.22-.74,.33-1.22,.33-.24,0-.45-.04-.64-.1-.18-.07-.35-.15-.48-.26-.14-.11-.25-.23-.34-.35-.09-.13-.16-.25-.22-.36v2.65h-.97Zm2.48-2.32c.44,0,.81-.17,1.09-.51,.28-.34,.42-.87,.42-1.58,0-.61-.13-1.1-.38-1.46-.26-.36-.63-.54-1.12-.54s-.88,.19-1.13,.56c-.26,.37-.38,.85-.38,1.45,0,.39,.06,.74,.17,1.05,.11,.32,.28,.57,.51,.76,.23,.19,.5,.28,.84,.28Zm5.12,.75c-.35,0-.65-.06-.92-.18-.27-.13-.48-.3-.63-.54-.15-.23-.22-.51-.22-.84,0-.6,.21-1.04,.62-1.33,.42-.29,1.08-.45,2-.47l.96-.03v-.42c0-.33-.1-.59-.3-.78-.2-.19-.5-.29-.92-.29-.31,0-.58,.08-.82,.22-.23,.14-.38,.38-.45,.7h-.85c.02-.35,.12-.65,.3-.89,.18-.24,.42-.43,.74-.55,.32-.13,.7-.19,1.13-.19,.47,0,.86,.07,1.16,.2,.31,.13,.54,.33,.7,.58,.16,.26,.23,.57,.23,.95v3.76h-.82l-.07-1.01c-.21,.42-.47,.71-.8,.88-.32,.16-.67,.24-1.06,.24Zm.29-.69c.18,0,.36-.03,.54-.1,.18-.07,.35-.15,.49-.27,.15-.11,.27-.24,.35-.38,.09-.14,.14-.29,.14-.44v-.92l-.8,.02c-.41,0-.75,.05-1.03,.13-.27,.08-.48,.2-.62,.36-.14,.16-.2,.38-.2,.64,0,.3,.1,.54,.31,.71,.21,.17,.48,.25,.82,.25Zm4.45,2.31c-.32,0-.53-.02-.65-.07l-.18-.07v-.63h.55c.2,.02,.37,0,.5-.03,.13-.04,.24-.08,.32-.14,.08-.06,.14-.13,.18-.2,.05-.07,.08-.14,.11-.21l.19-.51-2.1-5.26h.97l1.59,4.16,1.58-4.16h.94l-2.27,5.79c-.14,.34-.29,.61-.47,.8-.17,.19-.36,.32-.57,.4-.21,.08-.44,.11-.68,.11Zm5.01-1.72v-5.39h.93v.78c.15-.24,.35-.44,.61-.62,.26-.18,.6-.26,1.01-.26,.19,0,.39,.03,.59,.1,.2,.07,.39,.17,.56,.3,.17,.13,.3,.29,.4,.48,.17-.26,.39-.48,.68-.64,.28-.16,.6-.24,.96-.24,.19,0,.38,.03,.59,.09,.2,.06,.39,.16,.57,.3,.18,.14,.32,.34,.43,.6,.11,.25,.17,.58,.17,.98v3.52h-.97v-3.43c0-.33-.05-.58-.16-.76-.1-.18-.24-.31-.41-.38-.17-.07-.34-.11-.54-.11-.17,0-.34,.03-.53,.1-.19,.07-.35,.18-.48,.33-.13,.16-.2,.37-.2,.64v3.6h-.96v-3.71c0-.21-.06-.39-.17-.53-.11-.14-.25-.25-.42-.32-.17-.07-.33-.11-.5-.11-.18,0-.37,.04-.56,.11-.18,.07-.34,.19-.47,.35-.12,.16-.19,.36-.19,.61v3.6h-.96Zm9.68-2.47c0,.34,.06,.65,.17,.93,.11,.28,.29,.49,.51,.66,.23,.16,.52,.24,.87,.24s.64-.08,.88-.24c.25-.16,.41-.39,.48-.69h.91c-.07,.36-.21,.67-.44,.92-.23,.25-.5,.44-.82,.57-.32,.13-.65,.19-1,.19-.5,0-.94-.11-1.33-.33-.38-.22-.68-.53-.89-.94-.22-.41-.32-.9-.32-1.48s.1-1.06,.29-1.49c.19-.43,.47-.76,.84-1,.37-.24,.82-.36,1.34-.36s.93,.11,1.28,.33c.35,.22,.62,.53,.8,.93,.18,.4,.28,.87,.28,1.41v.35h-3.85Zm0-.65h2.92c0-.31-.05-.59-.16-.83-.1-.25-.26-.45-.48-.59-.21-.15-.48-.22-.8-.22s-.62,.08-.84,.24c-.22,.16-.38,.37-.49,.62-.11,.25-.16,.51-.16,.78Zm5.17,3.12v-5.39h.93v.78c.09-.15,.21-.29,.36-.42,.16-.13,.34-.24,.56-.32,.22-.08,.48-.12,.76-.12,.34,0,.65,.07,.94,.2,.29,.14,.52,.35,.69,.64,.17,.29,.26,.65,.26,1.1v3.52h-.96v-3.43c0-.42-.11-.73-.33-.93-.22-.2-.5-.31-.85-.31-.24,0-.47,.04-.68,.12-.21,.08-.38,.2-.51,.35-.13,.16-.2,.35-.2,.59v3.6h-.96Zm8.48-4.69h-1.21v3.35c0,.19,.02,.33,.06,.42,.04,.09,.11,.14,.2,.17,.1,.03,.23,.04,.4,.04h.59v.65c-.07,.02-.17,.05-.3,.06-.13,.02-.3,.03-.49,.03-.37,0-.66-.05-.86-.15-.21-.1-.35-.25-.43-.45-.08-.2-.12-.44-.12-.73v-3.38h-.87v-.7h.9l.24-1.57h.71v1.56h1.21v.71Zm3.78,4.69v-7.74h.94v3.15c.09-.15,.21-.29,.36-.42,.15-.13,.34-.24,.56-.32,.22-.08,.47-.13,.76-.13,.35,0,.67,.07,.95,.2,.28,.13,.51,.31,.68,.55,.17,.24,.25,.53,.25,.85v3.85h-.96v-3.66c0-.32-.11-.57-.33-.75-.22-.18-.5-.26-.86-.26-.24,0-.47,.04-.68,.12-.21,.08-.38,.2-.52,.35-.13,.16-.19,.36-.19,.6v3.6h-.96Zm7.46,.1c-.35,0-.65-.06-.92-.18-.27-.13-.48-.3-.63-.54-.15-.23-.22-.51-.22-.84,0-.6,.21-1.04,.62-1.33,.42-.29,1.08-.45,2-.47l.96-.03v-.42c0-.33-.1-.59-.3-.78-.2-.19-.51-.29-.92-.29-.31,0-.58,.08-.82,.22-.23,.14-.38,.38-.45,.7h-.85c.02-.35,.12-.65,.3-.89,.18-.24,.42-.43,.74-.55,.32-.13,.69-.19,1.13-.19,.47,0,.85,.07,1.16,.2,.31,.13,.54,.33,.7,.58,.16,.26,.23,.57,.23,.95v3.76h-.82l-.07-1.01c-.21,.42-.47,.71-.8,.88-.32,.16-.67,.24-1.05,.24Zm.29-.69c.18,0,.36-.03,.53-.1,.18-.07,.35-.15,.5-.27,.15-.11,.27-.24,.35-.38,.09-.14,.14-.29,.14-.44v-.92l-.8,.02c-.41,0-.75,.05-1.03,.13-.27,.08-.48,.2-.62,.36-.14,.16-.2,.38-.2,.64,0,.3,.1,.54,.31,.71,.21,.17,.48,.25,.82,.25Zm5.91,.69c-.37,0-.72-.06-1.05-.17-.32-.12-.58-.3-.79-.55-.21-.25-.35-.57-.4-.95h.87c.05,.21,.14,.39,.26,.53,.13,.14,.29,.25,.48,.32,.19,.07,.4,.1,.62,.1,.36,0,.65-.07,.87-.2,.22-.14,.33-.34,.33-.63,0-.2-.06-.35-.18-.47-.11-.12-.29-.21-.53-.27l-1.11-.28c-.43-.1-.78-.27-1.04-.49-.26-.22-.39-.53-.39-.93,0-.31,.07-.59,.22-.83,.15-.24,.38-.43,.69-.57,.3-.14,.68-.21,1.14-.21,.58,0,1.05,.13,1.41,.4,.36,.26,.55,.64,.56,1.15h-.85c-.04-.26-.15-.46-.35-.61-.2-.15-.46-.23-.79-.23s-.62,.07-.84,.21c-.22,.14-.32,.35-.32,.64,0,.19,.07,.34,.23,.45,.15,.11,.38,.2,.68,.27l1.08,.27c.25,.06,.45,.15,.61,.26,.16,.11,.29,.23,.38,.36,.1,.13,.16,.27,.2,.42,.04,.14,.06,.28,.06,.41,0,.33-.08,.61-.25,.85-.16,.24-.4,.42-.71,.55-.31,.13-.68,.19-1.11,.19Zm8.43,0c-.32,0-.58-.04-.8-.13-.21-.08-.39-.19-.53-.32-.14-.13-.25-.26-.32-.4-.08-.14-.13-.26-.17-.36l-.1,1.1h-.73v-7.74h.97v3.21c.05-.09,.11-.19,.2-.3,.09-.11,.21-.21,.36-.31,.15-.1,.32-.18,.52-.25,.2-.06,.43-.1,.69-.1,.67,0,1.21,.23,1.6,.7,.4,.47,.6,1.16,.6,2.07,0,.57-.08,1.06-.25,1.49-.17,.42-.42,.75-.76,.98-.34,.23-.76,.35-1.26,.35Zm-.17-.74c.44,0,.79-.17,1.07-.51,.27-.34,.41-.88,.41-1.62,0-.63-.13-1.12-.38-1.46-.25-.35-.62-.52-1.11-.52-.36,0-.64,.08-.86,.23-.21,.15-.37,.38-.48,.67-.1,.3-.15,.65-.16,1.07,0,.75,.12,1.3,.35,1.63,.24,.33,.63,.5,1.17,.5Zm4.39-1.83c0,.34,.06,.65,.17,.93,.11,.28,.29,.49,.52,.66,.23,.16,.52,.24,.87,.24s.64-.08,.88-.24c.25-.16,.41-.39,.48-.69h.91c-.07,.36-.21,.67-.44,.92-.23,.25-.5,.44-.82,.57-.32,.13-.65,.19-1,.19-.5,0-.94-.11-1.32-.33-.38-.22-.68-.53-.89-.94-.22-.41-.32-.9-.32-1.48s.1-1.06,.29-1.49c.19-.43,.47-.76,.84-1,.37-.24,.82-.36,1.34-.36s.93,.11,1.29,.33c.35,.22,.61,.53,.79,.93,.18,.4,.28,.87,.28,1.41v.35h-3.85Zm0-.65h2.92c0-.31-.05-.59-.16-.83-.1-.25-.26-.45-.48-.59-.21-.15-.48-.22-.8-.22s-.62,.08-.84,.24c-.22,.16-.38,.37-.49,.62-.11,.25-.16,.51-.16,.78Zm5.85,.65c0,.34,.06,.65,.17,.93,.11,.28,.29,.49,.52,.66,.23,.16,.52,.24,.87,.24s.64-.08,.88-.24c.25-.16,.41-.39,.48-.69h.91c-.07,.36-.21,.67-.44,.92-.22,.25-.5,.44-.82,.57-.32,.13-.65,.19-1,.19-.5,0-.94-.11-1.32-.33-.38-.22-.68-.53-.89-.94-.21-.41-.32-.9-.32-1.48s.1-1.06,.29-1.49,.47-.76,.84-1c.37-.24,.82-.36,1.34-.36s.94,.11,1.29,.33,.62,.53,.79,.93c.19,.4,.28,.87,.28,1.41v.35h-3.85Zm0-.65h2.92c0-.31-.05-.59-.16-.83-.1-.25-.26-.45-.48-.59-.21-.15-.48-.22-.8-.22s-.62,.08-.84,.24c-.22,.16-.38,.37-.49,.62-.11,.25-.16,.51-.16,.78Zm5.17,3.12v-5.39h.93v.78c.09-.15,.21-.29,.36-.42,.16-.13,.34-.24,.56-.32,.22-.08,.48-.12,.76-.12,.34,0,.65,.07,.94,.2,.29,.14,.52,.35,.69,.64,.17,.29,.26,.65,.26,1.1v3.52h-.96v-3.43c0-.42-.11-.73-.33-.93-.22-.2-.5-.31-.85-.31-.24,0-.47,.04-.68,.12-.21,.08-.38,.2-.51,.35-.13,.16-.2,.35-.2,.59v3.6h-.96Zm8.4,1.68v-7.07h.96v.94c.07-.11,.15-.23,.25-.35,.1-.12,.22-.23,.36-.34,.15-.1,.31-.19,.5-.26,.2-.06,.42-.1,.66-.1,.43,0,.81,.1,1.13,.3,.33,.2,.59,.49,.77,.9,.18,.4,.27,.91,.27,1.53s-.09,1.14-.27,1.57c-.18,.42-.43,.75-.77,.97-.33,.22-.74,.33-1.22,.33-.24,0-.45-.04-.64-.1-.18-.07-.35-.15-.48-.26-.14-.11-.25-.23-.34-.35-.09-.13-.16-.25-.22-.36v2.65h-.97Zm2.48-2.32c.44,0,.8-.17,1.09-.51,.28-.34,.42-.87,.42-1.58,0-.61-.13-1.1-.38-1.46s-.63-.54-1.12-.54-.88,.19-1.13,.56c-.26,.37-.38,.85-.38,1.45,0,.39,.06,.74,.17,1.05,.11,.32,.28,.57,.51,.76,.23,.19,.51,.28,.84,.28Zm3.7,.65v-5.39h.92v1.04c.09-.26,.22-.47,.38-.64,.16-.17,.35-.3,.56-.38,.21-.08,.43-.13,.66-.13,.08,0,.16,0,.23,.02,.08,0,.14,.03,.18,.05v.93c-.05-.03-.12-.04-.2-.05-.08-.01-.15-.01-.2-.01-.21-.01-.42,0-.6,.04-.19,.04-.35,.11-.49,.2-.14,.1-.26,.23-.34,.39-.08,.16-.12,.35-.12,.57v3.35h-.96Zm6.05,.1c-.5,0-.93-.11-1.3-.32-.37-.21-.66-.53-.86-.94-.2-.41-.31-.92-.31-1.52,0-.56,.09-1.05,.28-1.48,.19-.42,.47-.75,.84-.98,.37-.24,.82-.35,1.35-.35,.5,0,.93,.11,1.29,.33,.37,.22,.65,.53,.85,.95,.2,.42,.3,.93,.3,1.54,0,.55-.09,1.03-.28,1.45-.18,.42-.46,.74-.82,.98-.36,.23-.81,.35-1.34,.35Zm0-.76c.32,0,.59-.08,.82-.25,.22-.16,.39-.4,.5-.7,.11-.31,.17-.67,.17-1.09,0-.39-.05-.73-.15-1.04-.1-.31-.26-.55-.48-.74-.22-.18-.51-.27-.86-.27-.33,0-.6,.08-.83,.25-.23,.16-.4,.39-.52,.7-.11,.31-.17,.67-.17,1.1,0,.38,.05,.72,.16,1.03,.1,.31,.27,.55,.49,.74,.22,.18,.51,.27,.87,.27Zm5.84-4.84c.38,0,.73,.08,1.04,.22,.31,.15,.56,.35,.76,.63,.2,.27,.32,.59,.37,.96h-.85c-.03-.19-.1-.36-.22-.51-.11-.16-.26-.28-.44-.38-.19-.09-.4-.14-.64-.14-.46,0-.84,.17-1.12,.5-.29,.33-.43,.84-.43,1.53,0,.62,.13,1.12,.4,1.5,.27,.37,.66,.56,1.18,.56,.25,0,.46-.05,.64-.14,.18-.1,.33-.23,.44-.38,.11-.16,.18-.33,.21-.51h.84c-.05,.36-.17,.68-.36,.94-.2,.26-.45,.47-.76,.61-.31,.14-.65,.21-1.03,.21-.48,0-.91-.11-1.28-.32-.37-.21-.66-.52-.87-.94-.21-.41-.32-.92-.32-1.52,0-.56,.1-1.05,.29-1.47,.19-.42,.47-.75,.84-.99,.37-.24,.82-.35,1.35-.35Zm4.15,3.02c0,.34,.06,.65,.17,.93,.11,.28,.29,.49,.52,.66,.23,.16,.52,.24,.87,.24s.64-.08,.88-.24c.25-.16,.41-.39,.48-.69h.91c-.07,.36-.21,.67-.44,.92-.22,.25-.5,.44-.82,.57-.32,.13-.65,.19-1,.19-.5,0-.94-.11-1.32-.33-.38-.22-.68-.53-.89-.94-.21-.41-.32-.9-.32-1.48s.1-1.06,.29-1.49,.47-.76,.84-1c.37-.24,.82-.36,1.34-.36s.94,.11,1.29,.33,.62,.53,.79,.93c.19,.4,.28,.87,.28,1.41v.35h-3.85Zm0-.65h2.92c0-.31-.05-.59-.16-.83-.1-.25-.26-.45-.48-.59-.21-.15-.48-.22-.8-.22s-.62,.08-.84,.24c-.22,.16-.38,.37-.49,.62-.11,.25-.16,.51-.16,.78Zm7.04,3.23c-.37,0-.72-.06-1.05-.17-.32-.12-.58-.3-.79-.55-.21-.25-.35-.57-.4-.95h.87c.05,.21,.14,.39,.26,.53,.13,.14,.29,.25,.48,.32,.19,.07,.4,.1,.62,.1,.36,0,.65-.07,.87-.2,.22-.14,.33-.34,.33-.63,0-.2-.06-.35-.18-.47-.11-.12-.29-.21-.53-.27l-1.11-.28c-.43-.1-.78-.27-1.04-.49-.26-.22-.39-.53-.39-.93,0-.31,.07-.59,.22-.83,.15-.24,.38-.43,.69-.57,.3-.14,.68-.21,1.14-.21,.58,0,1.05,.13,1.41,.4,.36,.26,.55,.64,.56,1.15h-.85c-.03-.26-.15-.46-.35-.61-.2-.15-.46-.23-.79-.23s-.62,.07-.84,.21c-.22,.14-.32,.35-.32,.64,0,.19,.07,.34,.23,.45,.15,.11,.38,.2,.68,.27l1.08,.27c.25,.06,.46,.15,.61,.26,.16,.11,.29,.23,.38,.36,.1,.13,.16,.27,.2,.42,.04,.14,.06,.28,.06,.41,0,.33-.08,.61-.25,.85-.16,.24-.4,.42-.71,.55-.31,.13-.68,.19-1.11,.19Zm5.23,0c-.37,0-.72-.06-1.04-.17-.32-.12-.58-.3-.8-.55-.21-.25-.34-.57-.4-.95h.87c.05,.21,.14,.39,.26,.53,.13,.14,.29,.25,.48,.32,.19,.07,.4,.1,.62,.1,.36,0,.65-.07,.87-.2,.22-.14,.33-.34,.33-.63,0-.2-.06-.35-.18-.47-.11-.12-.29-.21-.54-.27l-1.11-.28c-.43-.1-.78-.27-1.04-.49-.26-.22-.39-.53-.39-.93,0-.31,.07-.59,.22-.83,.15-.24,.38-.43,.69-.57,.31-.14,.69-.21,1.14-.21,.58,0,1.05,.13,1.41,.4,.36,.26,.55,.64,.56,1.15h-.85c-.04-.26-.15-.46-.35-.61-.19-.15-.46-.23-.78-.23s-.62,.07-.84,.21c-.21,.14-.32,.35-.32,.64,0,.19,.08,.34,.23,.45,.15,.11,.38,.2,.68,.27l1.08,.27c.25,.06,.45,.15,.61,.26,.16,.11,.29,.23,.38,.36,.1,.13,.16,.27,.2,.42,.04,.14,.06,.28,.06,.41,0,.33-.08,.61-.25,.85-.16,.24-.4,.42-.71,.55-.3,.13-.68,.19-1.11,.19Zm4.1-2.57c0,.34,.05,.65,.17,.93,.11,.28,.28,.49,.51,.66,.23,.16,.52,.24,.87,.24s.64-.08,.88-.24c.25-.16,.41-.39,.48-.69h.91c-.07,.36-.21,.67-.44,.92-.22,.25-.5,.44-.82,.57-.32,.13-.65,.19-1,.19-.5,0-.95-.11-1.33-.33-.38-.22-.68-.53-.89-.94-.21-.41-.32-.9-.32-1.48s.1-1.06,.29-1.49,.47-.76,.84-1c.37-.24,.82-.36,1.34-.36s.93,.11,1.28,.33,.62,.53,.8,.93c.18,.4,.27,.87,.27,1.41v.35h-3.85Zm0-.65h2.92c0-.31-.05-.59-.16-.83-.1-.25-.26-.45-.48-.59-.21-.15-.48-.22-.8-.22s-.62,.08-.84,.24c-.22,.16-.38,.37-.5,.62-.11,.25-.16,.51-.16,.78Zm7.11,3.23c-.7,0-1.25-.24-1.66-.72s-.61-1.18-.61-2.1c0-.56,.08-1.05,.24-1.46,.17-.42,.41-.74,.74-.97,.33-.23,.73-.34,1.22-.34,.26,0,.48,.03,.68,.1,.2,.07,.37,.15,.52,.25,.15,.1,.26,.21,.35,.31,.09,.11,.16,.21,.21,.3v-3.21h.97v7.74h-.73l-.1-1.1c-.03,.1-.09,.23-.17,.36-.07,.14-.18,.27-.32,.4-.14,.13-.32,.24-.53,.32-.21,.08-.48,.13-.8,.13Zm.17-.74c.54,0,.93-.16,1.16-.5,.24-.33,.35-.88,.35-1.63,0-.42-.06-.78-.16-1.07-.1-.3-.26-.52-.48-.67-.21-.16-.5-.23-.86-.23-.44,0-.8,.16-1.08,.47-.28,.32-.42,.82-.42,1.51s.12,1.2,.37,1.57c.25,.37,.62,.56,1.1,.56Zm3.85,.64v-1.23h1.14v1.23h-1.14Zm-160.83,7.94v-.89h5.69v.89h-2.29v6.65h-.97v-6.65h-2.43Zm6.73,6.65v-7.74h.94v3.15c.09-.15,.21-.29,.36-.42,.15-.13,.34-.24,.56-.32,.22-.08,.47-.13,.76-.13,.35,0,.67,.07,.95,.2,.28,.13,.51,.31,.68,.55,.17,.24,.25,.53,.25,.85v3.85h-.96v-3.66c0-.32-.11-.57-.33-.75-.22-.18-.5-.26-.86-.26-.24,0-.46,.04-.68,.12-.21,.08-.38,.2-.51,.35-.13,.16-.19,.36-.19,.6v3.6h-.96Zm6.68-2.47c0,.34,.06,.65,.17,.93,.11,.28,.29,.49,.51,.66,.23,.16,.52,.24,.87,.24s.64-.08,.88-.24c.25-.16,.41-.39,.48-.69h.91c-.07,.36-.21,.67-.44,.92-.23,.25-.5,.44-.82,.57-.32,.13-.65,.19-1,.19-.5,0-.94-.11-1.33-.33-.38-.22-.68-.53-.89-.94-.21-.41-.32-.9-.32-1.48s.1-1.06,.29-1.49c.19-.43,.47-.76,.84-1,.37-.24,.82-.36,1.34-.36s.93,.11,1.28,.33c.35,.22,.62,.53,.8,.93,.18,.4,.28,.87,.28,1.41v.35h-3.85Zm0-.65h2.92c0-.31-.05-.59-.16-.83-.1-.25-.26-.45-.48-.59-.21-.15-.48-.22-.8-.22s-.62,.08-.84,.24c-.22,.16-.38,.37-.49,.62-.11,.25-.16,.51-.16,.78Zm10.23-1.56h-1.21v3.35c0,.19,.02,.33,.06,.42,.04,.09,.11,.14,.2,.17,.1,.03,.23,.04,.4,.04h.59v.65c-.07,.02-.17,.05-.3,.06-.13,.02-.3,.03-.49,.03-.37,0-.66-.05-.86-.15-.2-.1-.35-.25-.43-.45-.08-.2-.12-.44-.12-.73v-3.38h-.87v-.7h.9l.23-1.57h.71v1.56h1.21v.71Zm3.38,4.79c-.5,0-.93-.11-1.3-.32-.37-.21-.66-.53-.86-.94-.2-.41-.31-.92-.31-1.52,0-.56,.1-1.05,.29-1.48,.19-.42,.47-.75,.84-.98,.37-.24,.82-.35,1.35-.35,.5,0,.93,.11,1.29,.33,.37,.22,.65,.53,.85,.95,.2,.42,.3,.93,.3,1.54,0,.55-.09,1.03-.28,1.45-.18,.42-.46,.74-.82,.98-.36,.23-.81,.35-1.34,.35Zm0-.76c.32,0,.59-.08,.82-.25,.22-.16,.39-.4,.5-.7,.11-.31,.17-.67,.17-1.09,0-.39-.05-.73-.15-1.04-.1-.31-.26-.55-.48-.74-.22-.18-.5-.27-.86-.27-.33,0-.6,.08-.83,.25-.23,.16-.4,.39-.51,.7-.11,.31-.17,.67-.17,1.1,0,.38,.05,.72,.16,1.03,.1,.31,.27,.55,.49,.74,.22,.18,.51,.27,.87,.27Zm6.26-4.03h-1.21v3.35c0,.19,.02,.33,.06,.42,.04,.09,.11,.14,.2,.17,.1,.03,.23,.04,.4,.04h.59v.65c-.07,.02-.17,.05-.3,.06-.13,.02-.3,.03-.49,.03-.37,0-.66-.05-.86-.15-.2-.1-.35-.25-.43-.45-.08-.2-.12-.44-.12-.73v-3.38h-.87v-.7h.9l.23-1.57h.71v1.56h1.21v.71Zm2.83,4.79c-.35,0-.65-.06-.92-.18-.27-.13-.48-.3-.63-.54-.15-.23-.22-.51-.22-.84,0-.6,.21-1.04,.62-1.33,.42-.29,1.08-.45,2-.47l.96-.03v-.42c0-.33-.1-.59-.3-.78-.2-.19-.5-.29-.92-.29-.31,0-.58,.08-.82,.22-.23,.14-.38,.38-.45,.7h-.85c.02-.35,.12-.65,.3-.89,.18-.24,.42-.43,.74-.55,.32-.13,.69-.19,1.13-.19,.47,0,.86,.07,1.16,.2,.31,.13,.54,.33,.7,.58,.16,.26,.23,.57,.23,.95v3.76h-.82l-.07-1.01c-.21,.42-.47,.71-.8,.88-.32,.16-.67,.24-1.06,.24Zm.29-.69c.18,0,.36-.03,.54-.1,.18-.07,.34-.15,.49-.27,.15-.11,.27-.24,.35-.38,.09-.14,.14-.29,.14-.44v-.92l-.8,.02c-.41,0-.75,.05-1.03,.13-.27,.08-.48,.2-.62,.36-.14,.16-.2,.38-.2,.64,0,.3,.1,.54,.31,.71,.21,.17,.48,.25,.82,.25Zm5.45,.66c-.29,0-.53-.04-.71-.12-.18-.08-.31-.19-.41-.32-.09-.14-.16-.29-.19-.46-.03-.18-.05-.36-.05-.55v-6.36h.95v6.26c0,.27,.05,.47,.16,.61,.11,.14,.26,.21,.45,.23h.29v.63c-.08,.02-.16,.04-.25,.06-.09,.02-.16,.03-.23,.03Zm5.62,.04c-.35,0-.65-.06-.92-.18-.27-.13-.48-.3-.63-.54-.15-.23-.22-.51-.22-.84,0-.6,.21-1.04,.62-1.33,.42-.29,1.08-.45,2-.47l.96-.03v-.42c0-.33-.1-.59-.3-.78-.2-.19-.5-.29-.92-.29-.31,0-.58,.08-.82,.22-.23,.14-.38,.38-.45,.7h-.85c.02-.35,.12-.65,.3-.89,.18-.24,.42-.43,.74-.55,.32-.13,.7-.19,1.13-.19,.47,0,.86,.07,1.16,.2,.31,.13,.54,.33,.7,.58,.16,.26,.23,.57,.23,.95v3.76h-.82l-.07-1.01c-.21,.42-.47,.71-.8,.88-.32,.16-.67,.24-1.06,.24Zm.29-.69c.18,0,.36-.03,.54-.1,.18-.07,.35-.15,.49-.27,.15-.11,.27-.24,.35-.38,.09-.14,.14-.29,.14-.44v-.92l-.8,.02c-.41,0-.75,.05-1.03,.13-.27,.08-.48,.2-.62,.36-.14,.16-.2,.38-.2,.64,0,.3,.1,.54,.31,.71,.21,.17,.48,.25,.82,.25Zm4.09,.59v-5.39h.93v.78c.15-.24,.35-.44,.61-.62,.26-.18,.6-.26,1.01-.26,.19,0,.39,.03,.59,.1,.2,.07,.39,.17,.56,.3,.17,.13,.3,.29,.4,.48,.17-.26,.39-.48,.68-.64,.28-.16,.6-.24,.96-.24,.19,0,.38,.03,.59,.09,.2,.06,.39,.16,.57,.3,.18,.14,.32,.34,.43,.6,.11,.25,.17,.58,.17,.98v3.52h-.97v-3.43c0-.33-.05-.58-.16-.76-.1-.18-.24-.31-.41-.38-.17-.07-.34-.11-.54-.11-.17,0-.34,.03-.53,.1-.19,.07-.35,.18-.48,.33s-.2,.37-.2,.64v3.6h-.96v-3.71c0-.21-.06-.39-.17-.53-.11-.14-.25-.25-.42-.32-.17-.07-.33-.11-.5-.11-.18,0-.37,.04-.56,.11-.18,.07-.34,.19-.47,.35-.12,.16-.19,.36-.19,.61v3.6h-.96Zm11.14,.1c-.5,0-.93-.11-1.3-.32-.37-.21-.66-.53-.86-.94-.2-.41-.31-.92-.31-1.52,0-.56,.1-1.05,.28-1.48,.19-.42,.47-.75,.84-.98,.37-.24,.82-.35,1.35-.35,.5,0,.93,.11,1.29,.33,.37,.22,.65,.53,.85,.95,.2,.42,.3,.93,.3,1.54,0,.55-.09,1.03-.28,1.45-.18,.42-.46,.74-.82,.98-.36,.23-.81,.35-1.34,.35Zm0-.76c.32,0,.59-.08,.82-.25,.22-.16,.39-.4,.5-.7s.17-.67,.17-1.09c0-.39-.05-.73-.15-1.04-.1-.31-.26-.55-.48-.74-.22-.18-.51-.27-.86-.27-.32,0-.6,.08-.83,.25-.23,.16-.4,.39-.52,.7-.11,.31-.17,.67-.17,1.1,0,.38,.05,.72,.16,1.03,.1,.31,.27,.55,.49,.74,.22,.18,.51,.27,.87,.27Zm5.59,.76c-.28,0-.54-.04-.79-.12-.25-.08-.46-.2-.66-.35s-.34-.34-.45-.57c-.11-.23-.16-.49-.16-.8v-3.66h.96v3.56c0,.35,.11,.64,.32,.85,.22,.22,.55,.33,.98,.33,.4,0,.71-.1,.95-.31,.24-.21,.36-.52,.36-.93v-3.51h.96v5.39h-.76l-.1-1.03c-.06,.27-.18,.49-.34,.66-.16,.17-.35,.29-.57,.37-.22,.08-.45,.11-.71,.11Zm4.05-.1v-5.39h.93v.78c.09-.15,.21-.29,.36-.42,.16-.13,.34-.24,.56-.32,.22-.08,.48-.12,.76-.12,.34,0,.65,.07,.94,.2,.29,.14,.52,.35,.69,.64,.17,.29,.26,.65,.26,1.1v3.52h-.96v-3.43c0-.42-.11-.73-.33-.93-.22-.2-.5-.31-.85-.31-.24,0-.47,.04-.68,.12-.21,.08-.38,.2-.51,.35-.13,.16-.2,.35-.2,.59v3.6h-.96Zm8.48-4.69h-1.21v3.35c0,.19,.02,.33,.06,.42,.04,.09,.11,.14,.2,.17,.1,.03,.23,.04,.4,.04h.59v.65c-.07,.02-.17,.05-.3,.06-.13,.02-.3,.03-.5,.03-.37,0-.66-.05-.86-.15-.2-.1-.35-.25-.43-.45-.08-.2-.12-.44-.12-.73v-3.38h-.87v-.7h.9l.23-1.57h.71v1.56h1.21v.71Zm5.59,4.79c-.7,0-1.25-.24-1.66-.72s-.61-1.18-.61-2.1c0-.56,.08-1.05,.25-1.46,.17-.42,.41-.74,.74-.97,.32-.23,.73-.34,1.22-.34,.26,0,.48,.03,.68,.1,.2,.07,.37,.15,.52,.25,.15,.1,.26,.21,.35,.31,.09,.11,.16,.21,.21,.3v-3.21h.97v7.74h-.73l-.1-1.1c-.04,.1-.09,.23-.17,.36-.08,.14-.19,.27-.32,.4-.14,.13-.32,.24-.54,.32-.21,.08-.48,.13-.79,.13Zm.17-.74c.54,0,.93-.16,1.16-.5,.24-.33,.35-.88,.35-1.63,0-.42-.06-.78-.16-1.07-.1-.3-.26-.52-.48-.67-.22-.16-.5-.23-.86-.23-.44,0-.8,.16-1.08,.47-.28,.32-.42,.82-.42,1.51s.12,1.2,.37,1.57c.25,.37,.62,.56,1.1,.56Zm4.76-1.83c0,.34,.05,.65,.17,.93,.11,.28,.28,.49,.51,.66,.23,.16,.52,.24,.87,.24s.64-.08,.88-.24c.25-.16,.41-.39,.48-.69h.91c-.07,.36-.21,.67-.44,.92-.22,.25-.5,.44-.82,.57-.32,.13-.65,.19-1,.19-.5,0-.95-.11-1.33-.33-.38-.22-.68-.53-.89-.94-.21-.41-.32-.9-.32-1.48s.1-1.06,.29-1.49c.19-.43,.47-.76,.84-1,.37-.24,.82-.36,1.34-.36s.93,.11,1.28,.33,.62,.53,.8,.93c.18,.4,.27,.87,.27,1.41v.35h-3.85Zm0-.65h2.92c0-.31-.05-.59-.16-.83-.1-.25-.26-.45-.48-.59-.21-.15-.48-.22-.8-.22s-.62,.08-.84,.24c-.22,.16-.38,.37-.5,.62-.11,.25-.16,.51-.16,.78Zm7.11,3.23c-.7,0-1.25-.24-1.66-.72-.41-.48-.61-1.18-.61-2.1,0-.56,.08-1.05,.25-1.46,.17-.42,.41-.74,.74-.97,.32-.23,.73-.34,1.22-.34,.26,0,.48,.03,.68,.1,.2,.07,.37,.15,.52,.25,.15,.1,.26,.21,.35,.31,.09,.11,.16,.21,.21,.3v-3.21h.97v7.74h-.73l-.1-1.1c-.04,.1-.09,.23-.17,.36-.08,.14-.19,.27-.32,.4-.14,.13-.32,.24-.54,.32-.21,.08-.48,.13-.79,.13Zm.17-.74c.54,0,.93-.16,1.16-.5,.24-.33,.35-.88,.35-1.63,0-.42-.06-.78-.16-1.07-.1-.3-.26-.52-.48-.67-.22-.16-.5-.23-.86-.23-.44,0-.8,.16-1.08,.47-.28,.32-.42,.82-.42,1.51s.12,1.2,.37,1.57c.25,.37,.62,.56,1.1,.56Zm6.05,.74c-.28,0-.55-.04-.8-.12-.25-.08-.46-.2-.66-.35-.19-.15-.34-.34-.45-.57-.11-.23-.16-.49-.16-.8v-3.66h.96v3.56c0,.35,.11,.64,.32,.85,.22,.22,.54,.33,.98,.33,.4,0,.71-.1,.95-.31,.24-.21,.36-.52,.36-.93v-3.51h.96v5.39h-.77l-.1-1.03c-.07,.27-.18,.49-.34,.66-.16,.17-.35,.29-.57,.37-.22,.08-.46,.11-.71,.11Zm6.12-5.6c.38,0,.73,.08,1.04,.22,.31,.15,.56,.35,.75,.63,.2,.27,.32,.59,.37,.96h-.85c-.03-.19-.1-.36-.22-.51-.11-.16-.26-.28-.44-.38-.18-.09-.4-.14-.64-.14-.46,0-.83,.17-1.12,.5-.29,.33-.43,.84-.43,1.53,0,.62,.13,1.12,.4,1.5,.27,.37,.66,.56,1.18,.56,.25,0,.46-.05,.64-.14,.19-.1,.33-.23,.44-.38,.11-.16,.18-.33,.21-.51h.84c-.05,.36-.17,.68-.36,.94-.2,.26-.45,.47-.76,.61-.31,.14-.65,.21-1.03,.21-.48,0-.91-.11-1.29-.32-.37-.21-.66-.52-.87-.94-.21-.41-.32-.92-.32-1.52,0-.56,.1-1.05,.28-1.47,.2-.42,.48-.75,.84-.99,.37-.24,.82-.35,1.35-.35Zm6.02,.81h-1.21v3.35c0,.19,.02,.33,.06,.42,.04,.09,.11,.14,.2,.17,.1,.03,.23,.04,.4,.04h.59v.65c-.07,.02-.17,.05-.3,.06-.13,.02-.3,.03-.5,.03-.37,0-.66-.05-.86-.15s-.35-.25-.43-.45c-.08-.2-.12-.44-.12-.73v-3.38h-.87v-.7h.9l.23-1.57h.71v1.56h1.21v.71Zm1.92,2.22c0,.34,.06,.65,.17,.93,.11,.28,.29,.49,.52,.66,.23,.16,.52,.24,.87,.24s.64-.08,.88-.24c.25-.16,.41-.39,.48-.69h.91c-.07,.36-.21,.67-.44,.92-.22,.25-.5,.44-.82,.57-.32,.13-.65,.19-1,.19-.5,0-.94-.11-1.32-.33-.38-.22-.68-.53-.89-.94-.21-.41-.32-.9-.32-1.48s.1-1.06,.29-1.49,.47-.76,.84-1c.37-.24,.82-.36,1.34-.36s.94,.11,1.29,.33,.62,.53,.79,.93c.19,.4,.28,.87,.28,1.41v.35h-3.85Zm0-.65h2.92c0-.31-.05-.59-.16-.83-.1-.25-.26-.45-.48-.59-.21-.15-.48-.22-.8-.22s-.62,.08-.84,.24c-.22,.16-.38,.37-.49,.62-.11,.25-.16,.51-.16,.78Zm7.11,3.23c-.7,0-1.25-.24-1.66-.72-.41-.48-.61-1.18-.61-2.1,0-.56,.08-1.05,.24-1.46,.17-.42,.41-.74,.74-.97,.33-.23,.73-.34,1.22-.34,.26,0,.48,.03,.68,.1,.2,.07,.37,.15,.52,.25,.15,.1,.26,.21,.35,.31,.09,.11,.16,.21,.21,.3v-3.21h.97v7.74h-.73l-.1-1.1c-.03,.1-.09,.23-.17,.36-.07,.14-.18,.27-.32,.4-.14,.13-.32,.24-.53,.32-.21,.08-.48,.13-.8,.13Zm.17-.74c.54,0,.93-.16,1.16-.5,.24-.33,.35-.88,.35-1.63,0-.42-.06-.78-.16-1.07-.1-.3-.26-.52-.48-.67-.21-.16-.5-.23-.86-.23-.44,0-.8,.16-1.08,.47-.28,.32-.42,.82-.42,1.51s.12,1.2,.37,1.57c.25,.37,.62,.56,1.1,.56Zm9.51-4.75v.7h-1.31v4.69h-.97v-4.69h-1.13v-.7h1.13v-.83c0-.43,.11-.75,.33-.98,.22-.23,.54-.34,.98-.34h1.01v.68h-.8c-.22,0-.37,.06-.45,.18-.08,.12-.12,.3-.12,.54v.75h1.32Zm1.19,5.39v-5.39h.92v1.04c.09-.26,.22-.47,.38-.64,.16-.17,.35-.3,.56-.38,.21-.08,.43-.13,.66-.13,.08,0,.16,0,.24,.02,.07,0,.14,.03,.18,.05v.93c-.05-.03-.12-.04-.2-.05-.08-.01-.15-.01-.2-.01-.22-.01-.42,0-.6,.04-.19,.04-.35,.11-.5,.2-.14,.1-.25,.23-.34,.39-.08,.16-.12,.35-.12,.57v3.35h-.96Zm6.05,.1c-.5,0-.93-.11-1.3-.32-.37-.21-.66-.53-.86-.94-.2-.41-.31-.92-.31-1.52,0-.56,.1-1.05,.28-1.48,.19-.42,.47-.75,.84-.98,.37-.24,.82-.35,1.35-.35,.5,0,.93,.11,1.29,.33,.37,.22,.65,.53,.85,.95,.2,.42,.3,.93,.3,1.54,0,.55-.09,1.03-.28,1.45-.18,.42-.46,.74-.82,.98-.36,.23-.81,.35-1.34,.35Zm0-.76c.32,0,.59-.08,.82-.25,.22-.16,.39-.4,.5-.7,.11-.31,.17-.67,.17-1.09,0-.39-.05-.73-.15-1.04-.1-.31-.26-.55-.48-.74-.22-.18-.51-.27-.86-.27-.32,0-.6,.08-.83,.25-.22,.16-.4,.39-.52,.7-.11,.31-.17,.67-.17,1.1,0,.38,.05,.72,.16,1.03,.1,.31,.27,.55,.49,.74,.22,.18,.51,.27,.87,.27Zm3.7,.66v-5.39h.93v.78c.15-.24,.35-.44,.61-.62,.26-.18,.6-.26,1.01-.26,.19,0,.39,.03,.59,.1,.2,.07,.39,.17,.56,.3,.17,.13,.3,.29,.4,.48,.17-.26,.39-.48,.68-.64,.28-.16,.61-.24,.96-.24,.19,0,.38,.03,.59,.09,.2,.06,.39,.16,.57,.3,.18,.14,.32,.34,.43,.6,.11,.25,.17,.58,.17,.98v3.52h-.97v-3.43c0-.33-.05-.58-.16-.76-.1-.18-.24-.31-.41-.38-.17-.07-.35-.11-.54-.11-.17,0-.34,.03-.53,.1-.19,.07-.35,.18-.48,.33s-.2,.37-.2,.64v3.6h-.96v-3.71c0-.21-.06-.39-.17-.53-.11-.14-.25-.25-.42-.32-.17-.07-.33-.11-.5-.11-.18,0-.37,.04-.56,.11-.19,.07-.34,.19-.47,.35-.12,.16-.19,.36-.19,.61v3.6h-.96Zm11.85,1.72c-.32,0-.53-.02-.65-.07-.12-.05-.18-.07-.18-.07v-.63h.55c.2,.02,.37,0,.5-.03,.13-.04,.24-.08,.32-.14,.08-.06,.14-.13,.18-.2,.05-.07,.08-.14,.11-.21l.19-.51-2.1-5.26h.97l1.58,4.16,1.58-4.16h.94l-2.27,5.79c-.14,.34-.29,.61-.47,.8-.17,.19-.36,.32-.57,.4-.21,.08-.43,.11-.68,.11Zm6.96-1.62c-.5,0-.93-.11-1.3-.32-.37-.21-.66-.53-.86-.94-.21-.41-.31-.92-.31-1.52,0-.56,.1-1.05,.29-1.48,.19-.42,.47-.75,.84-.98,.37-.24,.82-.35,1.35-.35,.5,0,.93,.11,1.29,.33,.37,.22,.65,.53,.85,.95,.2,.42,.3,.93,.3,1.54,0,.55-.09,1.03-.28,1.45-.19,.42-.46,.74-.82,.98-.36,.23-.81,.35-1.34,.35Zm0-.76c.32,0,.59-.08,.82-.25,.22-.16,.39-.4,.51-.7,.11-.31,.17-.67,.17-1.09,0-.39-.05-.73-.15-1.04-.1-.31-.26-.55-.48-.74-.22-.18-.5-.27-.86-.27-.33,0-.6,.08-.83,.25-.22,.16-.4,.39-.51,.7-.11,.31-.17,.67-.17,1.1,0,.38,.05,.72,.16,1.03,.1,.31,.27,.55,.49,.74,.22,.18,.51,.27,.87,.27Zm5.59,.76c-.28,0-.55-.04-.8-.12-.25-.08-.46-.2-.66-.35-.19-.15-.34-.34-.45-.57-.11-.23-.16-.49-.16-.8v-3.66h.96v3.56c0,.35,.11,.64,.32,.85,.22,.22,.54,.33,.98,.33,.4,0,.71-.1,.95-.31,.24-.21,.36-.52,.36-.93v-3.51h.96v5.39h-.77l-.1-1.03c-.07,.27-.18,.49-.34,.66-.16,.17-.34,.29-.57,.37-.22,.08-.45,.11-.71,.11Zm4.05-.1v-5.39h.92v1.04c.09-.26,.22-.47,.38-.64,.16-.17,.35-.3,.56-.38,.21-.08,.43-.13,.66-.13,.08,0,.16,0,.24,.02,.08,0,.14,.03,.18,.05v.93c-.05-.03-.12-.04-.2-.05-.08-.01-.15-.01-.2-.01-.21-.01-.42,0-.6,.04-.19,.04-.35,.11-.5,.2-.14,.1-.25,.23-.34,.39-.08,.16-.12,.35-.12,.57v3.35h-.96Zm-173.16,14.69c-.35,0-.65-.06-.92-.18-.27-.13-.48-.3-.63-.54-.15-.23-.22-.51-.22-.84,0-.6,.21-1.04,.62-1.33,.42-.29,1.08-.45,2-.47l.96-.03v-.42c0-.33-.1-.59-.3-.78-.2-.19-.5-.29-.92-.29-.31,0-.58,.08-.82,.22-.23,.14-.38,.38-.45,.7h-.85c.02-.35,.12-.65,.3-.89,.18-.24,.42-.43,.74-.55,.32-.13,.7-.19,1.13-.19,.47,0,.86,.07,1.16,.2,.31,.13,.54,.33,.7,.58,.16,.26,.23,.57,.23,.95v3.76h-.82l-.07-1.01c-.21,.42-.47,.71-.8,.88-.32,.16-.67,.24-1.06,.24Zm.29-.69c.18,0,.36-.03,.54-.1,.18-.07,.34-.15,.49-.27,.15-.11,.27-.24,.35-.38,.09-.14,.14-.29,.14-.44v-.92l-.8,.02c-.41,0-.75,.05-1.03,.13-.27,.08-.48,.2-.62,.36-.14,.16-.2,.38-.2,.64,0,.3,.1,.54,.31,.71,.21,.17,.48,.25,.82,.25Zm6.23-4.9c.38,0,.73,.08,1.04,.22,.31,.15,.56,.35,.75,.63,.2,.27,.32,.59,.37,.96h-.85c-.03-.19-.1-.36-.22-.51-.11-.16-.26-.28-.44-.38-.18-.09-.4-.14-.64-.14-.46,0-.84,.17-1.12,.5-.29,.33-.43,.84-.43,1.53,0,.62,.13,1.12,.4,1.5,.27,.37,.66,.56,1.18,.56,.25,0,.46-.05,.64-.14,.18-.1,.33-.23,.44-.38,.11-.16,.18-.33,.21-.51h.84c-.05,.36-.17,.68-.36,.94-.2,.26-.45,.47-.76,.61-.31,.14-.65,.21-1.03,.21-.48,0-.91-.11-1.28-.32-.37-.21-.66-.52-.87-.94-.21-.41-.32-.92-.32-1.52,0-.56,.1-1.05,.29-1.47,.19-.42,.47-.75,.84-.99,.37-.24,.82-.35,1.35-.35Zm5.61,0c.38,0,.73,.08,1.04,.22,.31,.15,.56,.35,.75,.63,.2,.27,.32,.59,.37,.96h-.85c-.03-.19-.1-.36-.22-.51-.11-.16-.26-.28-.44-.38-.18-.09-.4-.14-.64-.14-.46,0-.84,.17-1.12,.5-.29,.33-.43,.84-.43,1.53,0,.62,.13,1.12,.4,1.5,.27,.37,.66,.56,1.18,.56,.25,0,.46-.05,.64-.14,.18-.1,.33-.23,.44-.38,.11-.16,.18-.33,.21-.51h.84c-.05,.36-.17,.68-.36,.94-.2,.26-.45,.47-.76,.61-.31,.14-.65,.21-1.03,.21-.48,0-.91-.11-1.28-.32-.37-.21-.66-.52-.87-.94-.21-.41-.32-.92-.32-1.52,0-.56,.1-1.05,.29-1.47,.19-.42,.47-.75,.84-.99,.37-.24,.82-.35,1.35-.35Zm5.6,5.6c-.5,0-.93-.11-1.3-.32-.37-.21-.66-.53-.86-.94-.2-.41-.31-.92-.31-1.52,0-.56,.1-1.05,.29-1.48,.19-.42,.47-.75,.84-.98,.37-.24,.82-.35,1.35-.35,.5,0,.93,.11,1.29,.33,.37,.22,.65,.53,.85,.95,.2,.42,.3,.93,.3,1.54,0,.55-.09,1.03-.28,1.45-.18,.42-.46,.74-.82,.98-.36,.23-.81,.35-1.34,.35Zm0-.76c.32,0,.59-.08,.82-.25,.22-.16,.39-.4,.5-.7,.11-.31,.17-.67,.17-1.09,0-.39-.05-.73-.15-1.04-.1-.31-.26-.55-.48-.74-.22-.18-.5-.27-.86-.27-.33,0-.6,.08-.83,.25-.23,.16-.4,.39-.51,.7-.11,.31-.17,.67-.17,1.1,0,.38,.05,.72,.16,1.03,.1,.31,.27,.55,.49,.74,.22,.18,.51,.27,.87,.27Zm5.59,.76c-.28,0-.55-.04-.8-.12-.25-.08-.46-.2-.66-.35-.19-.15-.34-.34-.45-.57-.11-.23-.16-.49-.16-.8v-3.66h.96v3.56c0,.35,.11,.64,.32,.85,.22,.22,.55,.33,.98,.33,.4,0,.71-.1,.95-.31,.24-.21,.36-.52,.36-.93v-3.51h.96v5.39h-.76l-.1-1.03c-.07,.27-.18,.49-.34,.66-.16,.17-.35,.29-.57,.37-.22,.08-.45,.11-.71,.11Zm4.05-.1v-5.39h.93v.78c.09-.15,.21-.29,.36-.42,.16-.13,.34-.24,.56-.32,.22-.08,.48-.12,.76-.12,.34,0,.65,.07,.94,.2,.29,.14,.52,.35,.69,.64,.17,.29,.26,.65,.26,1.1v3.52h-.96v-3.43c0-.42-.11-.73-.33-.93-.22-.2-.5-.31-.85-.31-.24,0-.47,.04-.68,.12-.21,.08-.38,.2-.51,.35-.13,.16-.2,.35-.2,.59v3.6h-.96Zm8.48-4.69h-1.21v3.35c0,.19,.02,.33,.06,.42,.04,.09,.11,.14,.2,.17,.1,.03,.23,.04,.4,.04h.59v.65c-.07,.02-.17,.05-.3,.06-.13,.02-.3,.03-.49,.03-.37,0-.66-.05-.86-.15-.2-.1-.35-.25-.43-.45-.08-.2-.12-.44-.12-.73v-3.38h-.87v-.7h.9l.23-1.57h.71v1.56h1.21v.71Zm4.82-.7v5.39h-.93v-5.39h.93Zm.02-2.14v1h-.98v-1h.98Zm3.58,7.63c-.37,0-.72-.06-1.05-.17-.32-.12-.58-.3-.8-.55-.21-.25-.34-.57-.4-.95h.87c.05,.21,.14,.39,.26,.53,.13,.14,.29,.25,.48,.32,.19,.07,.4,.1,.62,.1,.36,0,.65-.07,.87-.2,.22-.14,.33-.34,.33-.63,0-.2-.06-.35-.18-.47-.11-.12-.29-.21-.54-.27l-1.11-.28c-.43-.1-.78-.27-1.04-.49-.26-.22-.39-.53-.39-.93,0-.31,.07-.59,.22-.83s.38-.43,.69-.57,.68-.21,1.14-.21c.58,0,1.05,.13,1.41,.4,.36,.26,.55,.64,.56,1.15h-.85c-.03-.26-.15-.46-.35-.61-.19-.15-.46-.23-.79-.23s-.62,.07-.84,.21c-.21,.14-.32,.35-.32,.64,0,.19,.08,.34,.23,.45,.15,.11,.38,.2,.68,.27l1.08,.27c.25,.06,.45,.15,.61,.26,.16,.11,.29,.23,.38,.36,.1,.13,.16,.27,.2,.42,.04,.14,.06,.28,.06,.41,0,.33-.08,.61-.25,.85-.16,.24-.4,.42-.71,.55-.31,.13-.68,.19-1.11,.19Zm11.68-2.97c0,.61-.1,1.13-.3,1.58-.2,.45-.52,.79-.96,1.03-.44,.24-1.02,.36-1.75,.36s-1.32-.12-1.76-.36c-.44-.25-.76-.6-.96-1.05-.19-.45-.29-.99-.29-1.62v-4.61h1.54v4.72c0,.56,.14,.98,.41,1.24,.27,.26,.62,.39,1.06,.39,.29,0,.54-.06,.76-.17,.22-.11,.4-.29,.52-.53,.13-.24,.19-.55,.19-.93v-4.72h1.53v4.66Zm4.33,2.97c-.37,0-.73-.05-1.09-.14-.36-.09-.68-.23-.98-.42s-.54-.42-.73-.7c-.19-.28-.3-.61-.34-.99h1.56c.05,.23,.15,.42,.3,.58,.15,.16,.33,.28,.55,.36,.22,.08,.47,.13,.74,.13s.53-.03,.76-.1c.23-.07,.41-.17,.55-.31,.14-.14,.21-.32,.21-.53,0-.19-.06-.35-.17-.47-.11-.12-.26-.22-.45-.3-.19-.08-.41-.14-.65-.19l-1.3-.26c-.57-.11-1.02-.34-1.35-.68-.33-.35-.51-.81-.52-1.39,0-.47,.12-.88,.37-1.22,.26-.35,.6-.61,1.04-.8,.44-.19,.93-.28,1.48-.28,.65,0,1.19,.1,1.63,.31,.45,.2,.78,.48,1.01,.82,.23,.34,.35,.73,.36,1.15h-1.52c-.03-.26-.11-.48-.24-.63-.13-.16-.3-.27-.51-.34-.2-.07-.44-.1-.7-.1-.2,0-.38,.02-.55,.07-.16,.05-.3,.11-.42,.19-.11,.08-.2,.18-.27,.29-.06,.11-.09,.24-.09,.38,0,.22,.07,.4,.22,.53s.42,.25,.82,.33l1.29,.27c.46,.09,.83,.22,1.1,.4,.27,.18,.48,.38,.61,.6,.14,.22,.23,.45,.27,.68,.05,.23,.07,.44,.07,.64,0,.41-.13,.77-.38,1.1-.25,.32-.61,.58-1.06,.77-.45,.19-.98,.28-1.59,.28Zm9.42,0c-.9,0-1.63-.18-2.19-.54-.56-.36-.88-.93-.97-1.68l1.58-.03c.08,.34,.26,.61,.54,.79,.28,.18,.62,.26,1.04,.26,.25,0,.47-.04,.66-.12,.2-.08,.35-.19,.46-.33,.11-.14,.17-.3,.17-.49,0-.28-.09-.48-.26-.62-.18-.14-.45-.25-.82-.33l-1.23-.26c-.57-.12-1.03-.34-1.38-.68-.34-.34-.52-.8-.52-1.38,0-.47,.12-.88,.38-1.22,.26-.35,.61-.61,1.06-.8,.45-.19,.95-.28,1.5-.28s1.06,.1,1.47,.31c.42,.2,.73,.48,.96,.82,.22,.34,.33,.72,.33,1.13l-1.53,.03c-.05-.33-.16-.6-.33-.79-.17-.19-.46-.29-.86-.29-.21,0-.39,.02-.56,.07-.16,.05-.3,.11-.42,.19-.12,.08-.21,.18-.27,.29-.06,.11-.09,.24-.09,.38,0,.22,.07,.39,.22,.52,.15,.13,.43,.24,.84,.35l1.21,.3c.68,.16,1.18,.44,1.48,.84,.31,.4,.46,.88,.46,1.44,0,.44-.12,.81-.36,1.14-.24,.32-.57,.57-1,.75-.43,.18-.94,.27-1.53,.27Zm-.65-8.72h1.31v1.35h-1.31v-1.35Zm-.03,8.25h1.31v1.36h-1.31v-1.36Zm5.87,.36v-5.64h-1.34v-.86c.43,0,.78-.04,1.04-.12,.27-.08,.47-.2,.6-.35,.13-.16,.21-.34,.23-.56h1.01v7.53h-1.54Zm6.02-7.64c.89,0,1.6,.34,2.12,1,.52,.67,.78,1.63,.78,2.88s-.26,2.2-.77,2.87c-.51,.66-1.22,1-2.13,1s-1.62-.33-2.14-1c-.51-.66-.76-1.62-.76-2.87,0-.83,.12-1.54,.35-2.12,.24-.58,.57-1.02,1-1.32,.43-.3,.95-.45,1.55-.45Zm0,6.51c.45,0,.77-.2,.98-.6,.21-.4,.31-1.08,.31-2.02s-.11-1.65-.32-2.07c-.21-.42-.54-.63-.98-.63s-.77,.21-.99,.63c-.22,.42-.32,1.11-.32,2.06s.11,1.61,.32,2.01c.21,.4,.55,.6,1,.6Zm7.18-6.4h1.49v4.59h1.16v1.28h-1.16v1.67h-1.46v-1.67h-3.46v-1.25l3.43-4.62Zm-2.02,4.59h2.06v-2.76l-2.06,2.76Zm5.49,2.94v-1.66h1.66v1.66h-1.66Zm5.51,.11c-.47,0-.9-.09-1.31-.27-.41-.18-.74-.43-.99-.76-.26-.33-.4-.71-.43-1.16h1.45c.06,.29,.2,.53,.42,.71,.22,.18,.49,.27,.81,.27,.36,0,.68-.08,.95-.25,.27-.17,.48-.44,.61-.81,.14-.37,.19-.86,.15-1.46-.1,.18-.23,.35-.41,.48-.17,.14-.37,.24-.6,.32-.23,.07-.48,.11-.77,.11-.51,0-.96-.09-1.36-.29-.39-.19-.7-.47-.93-.82-.22-.36-.33-.78-.33-1.27s.12-.93,.35-1.32c.24-.39,.56-.69,.99-.91,.42-.22,.92-.33,1.49-.33,.64,0,1.19,.15,1.65,.46,.47,.3,.82,.73,1.07,1.29,.25,.56,.37,1.21,.37,1.96,0,.9-.13,1.65-.38,2.25-.25,.6-.62,1.05-1.09,1.34-.48,.3-1.04,.44-1.7,.44Zm.14-4.03c.21,0,.42-.05,.61-.14,.2-.1,.37-.22,.5-.36,.13-.15,.19-.3,.19-.45,0-.34-.05-.63-.16-.86-.11-.24-.26-.43-.46-.56-.2-.13-.42-.19-.68-.19-.24,0-.45,.06-.64,.17-.19,.11-.33,.27-.44,.47-.11,.2-.16,.44-.16,.7,0,.39,.11,.7,.34,.92,.23,.22,.53,.32,.9,.32Zm6.83-3.72c.89,0,1.6,.34,2.12,1,.52,.67,.77,1.63,.77,2.88s-.25,2.2-.76,2.87c-.51,.66-1.22,1-2.13,1s-1.62-.33-2.14-1c-.51-.66-.77-1.62-.77-2.87,0-.83,.12-1.54,.35-2.12s.57-1.02,1-1.32c.43-.3,.95-.45,1.54-.45Zm0,6.51c.45,0,.78-.2,.98-.6,.21-.4,.31-1.08,.31-2.02s-.11-1.65-.32-2.07c-.21-.42-.54-.63-.98-.63s-.78,.21-.99,.63c-.21,.42-.32,1.11-.32,2.06s.11,1.61,.32,2.01c.21,.4,.55,.6,1,.6Zm3.92,1.13v-1.23h1.14v1.23h-1.14Z"/><path class="cls-4" d="M41.41,192.22v-3.1l2.52-4.27h-1.6l-1.65,2.99-1.67-2.99h-1.58l2.51,4.27v3.11h1.46Zm5.47,.1c.53,0,.98-.12,1.35-.35,.37-.23,.66-.55,.86-.95,.2-.41,.3-.88,.3-1.4,0-.56-.1-1.05-.31-1.47s-.49-.74-.87-.96c-.37-.23-.82-.34-1.33-.34s-.95,.12-1.33,.35c-.38,.23-.67,.55-.87,.97-.21,.41-.31,.9-.31,1.45s.1,1.03,.31,1.44c.21,.4,.5,.72,.87,.94,.38,.22,.82,.33,1.32,.33Zm-.64-1.35c.16,.16,.37,.24,.65,.24,.26,0,.46-.08,.62-.23,.16-.15,.27-.35,.34-.6,.07-.25,.11-.52,.11-.82s-.03-.54-.1-.79c-.07-.25-.18-.45-.33-.6-.16-.15-.37-.23-.64-.23s-.47,.07-.62,.22-.27,.34-.35,.59c-.07,.25-.11,.52-.11,.82,0,.28,.03,.54,.1,.79,.07,.25,.18,.46,.34,.62Zm6.03,1.35c.2,0,.41-.03,.62-.1,.21-.06,.4-.18,.57-.34,.17-.17,.28-.4,.34-.71l.17,1.05h1.1v-5.27h-1.45v3.43c0,.27-.08,.48-.25,.63-.17,.15-.4,.23-.68,.23-.3,0-.53-.08-.69-.23-.16-.16-.24-.36-.24-.6v-3.46h-1.46v3.65c0,.28,.06,.53,.17,.74,.12,.21,.27,.39,.46,.54,.19,.15,.4,.26,.63,.33,.23,.08,.47,.11,.71,.11Zm5.45-2.99v2.88h-1.46v-5.27h1.41v1.25c.08-.27,.2-.5,.35-.71s.34-.36,.55-.47c.22-.11,.46-.17,.74-.17,.05,0,.09,0,.13,0,.04,0,.07,.01,.09,.02v1.42s-.07-.02-.11-.03c-.04,0-.08,0-.11,0-.29-.03-.53-.02-.74,.02-.2,.04-.37,.11-.5,.21-.13,.1-.22,.22-.28,.36-.06,.14-.09,.3-.09,.48Zm5.85,2.88l.61-1.71h2.6l.59,1.71h1.46l-2.59-7.37h-1.54l-2.59,7.37h1.47Zm.93-3.01h1.93l-.96-2.93-.97,2.93Zm6.69,4.65v-2.43c.07,.13,.16,.24,.26,.35,.1,.11,.21,.2,.34,.28,.13,.08,.26,.15,.41,.19,.15,.05,.3,.07,.47,.07,.41,0,.77-.1,1.1-.3,.32-.2,.58-.5,.76-.91,.19-.41,.28-.93,.28-1.57s-.09-1.12-.26-1.52c-.17-.4-.41-.7-.71-.89-.3-.19-.64-.29-1.03-.29-.18,0-.35,.02-.51,.06-.16,.04-.31,.1-.45,.18-.14,.08-.26,.17-.37,.27-.11,.1-.21,.22-.28,.34v-.76h-1.47v6.91h1.46Zm.49-2.86c.17,.16,.37,.23,.63,.23,.32,0,.58-.13,.8-.4,.22-.27,.32-.69,.32-1.27,0-.51-.1-.91-.31-1.2-.21-.29-.48-.43-.81-.43-.38,0-.66,.15-.84,.46-.19,.31-.28,.7-.28,1.16,0,.3,.04,.57,.12,.83,.08,.25,.21,.46,.37,.62Zm5.55,2.86v-2.43c.07,.13,.16,.24,.26,.35,.1,.11,.21,.2,.34,.28,.13,.08,.26,.15,.41,.19,.15,.05,.3,.07,.47,.07,.41,0,.77-.1,1.1-.3,.32-.2,.58-.5,.76-.91,.19-.41,.28-.93,.28-1.57s-.09-1.12-.26-1.52c-.17-.4-.41-.7-.71-.89-.3-.19-.64-.29-1.03-.29-.18,0-.35,.02-.51,.06-.16,.04-.31,.1-.45,.18-.14,.08-.26,.17-.37,.27-.11,.1-.21,.22-.28,.34v-.76h-1.47v6.91h1.46Zm.49-2.86c.17,.16,.37,.23,.63,.23,.32,0,.58-.13,.8-.4,.22-.27,.32-.69,.32-1.27,0-.51-.1-.91-.31-1.2-.21-.29-.48-.43-.81-.43-.38,0-.66,.15-.84,.46-.19,.31-.28,.7-.28,1.16,0,.3,.04,.57,.12,.83,.08,.25,.21,.46,.37,.62Z"/><path class="cls-1" d="M184.19,192.1c-.22,.14-.54,.21-.94,.21-.26,0-.5-.03-.72-.09-.23-.06-.37-.11-.45-.14l.07-.9c.1,.04,.22,.08,.36,.14,.14,.06,.3,.08,.5,.08,.33,0,.55-.09,.67-.28,.12-.18,.18-.49,.18-.93v-5.36h.93v5.63c0,.39-.04,.72-.13,1-.09,.28-.24,.48-.46,.63Zm4.71,.1c-.21,.08-.44,.11-.68,.11-.27,0-.52-.04-.76-.12-.24-.08-.45-.19-.63-.34-.18-.15-.33-.34-.43-.56s-.16-.48-.16-.78v-3.58h.93v3.48c0,.34,.1,.62,.31,.84,.21,.21,.52,.32,.94,.32,.38,0,.69-.1,.92-.3,.23-.2,.35-.5,.35-.9v-3.43h.92v5.27h-.74l-.1-1.01c-.06,.27-.17,.48-.32,.64-.15,.16-.33,.28-.55,.36Zm4.99,.11c.42,0,.78-.06,1.07-.19s.52-.31,.68-.54c.16-.23,.24-.51,.24-.83,0-.13-.02-.26-.06-.41-.04-.14-.1-.28-.2-.4-.09-.13-.21-.25-.37-.35-.15-.1-.35-.19-.59-.25l-1.04-.26c-.29-.07-.5-.16-.65-.27-.15-.11-.22-.25-.22-.44,0-.28,.1-.49,.31-.63,.21-.13,.47-.2,.8-.2s.57,.07,.76,.22c.19,.15,.3,.35,.33,.6h.82c-.01-.5-.19-.87-.54-1.13-.35-.26-.8-.39-1.36-.39-.44,0-.8,.07-1.1,.2-.3,.14-.52,.32-.66,.55-.15,.24-.22,.51-.22,.82,0,.39,.12,.69,.38,.91,.25,.22,.58,.38,1,.48l1.07,.27c.23,.05,.41,.14,.52,.26,.11,.12,.17,.27,.17,.46,0,.28-.11,.48-.32,.61-.21,.13-.5,.2-.84,.2-.22,0-.42-.04-.6-.1-.18-.07-.34-.17-.46-.31-.12-.14-.21-.31-.25-.52h-.84c.05,.38,.18,.69,.38,.93,.2,.24,.46,.42,.77,.54,.31,.11,.64,.17,1,.17Zm5.73-.1c-.13,.02-.29,.03-.48,.03-.36,0-.64-.05-.83-.15-.2-.1-.33-.24-.41-.44s-.12-.43-.12-.71v-3.31h-.84v-.69h.87l.23-1.53h.68v1.53h1.17v.69h-1.17v3.28c0,.19,.02,.32,.06,.41,.04,.09,.1,.14,.2,.16s.22,.04,.38,.04h.57v.63c-.06,.03-.16,.05-.29,.06Zm5.01,0v-5.81l3.89,5.81h.83v-7.37h-.93v5.73l-3.83-5.73h-.89v7.37h.93Zm9.79-.24c-.35,.23-.78,.34-1.3,.34-.48,0-.89-.1-1.25-.31-.36-.21-.63-.51-.83-.92s-.3-.9-.3-1.48c0-.55,.09-1.03,.28-1.45,.18-.41,.45-.74,.81-.97,.36-.23,.79-.34,1.3-.34,.48,0,.89,.11,1.25,.32,.35,.21,.62,.52,.82,.94,.19,.41,.29,.91,.29,1.5,0,.54-.09,1.01-.27,1.42s-.44,.73-.79,.96Zm-1.3-.4c-.34,0-.62-.09-.84-.27-.21-.18-.37-.41-.47-.72-.1-.3-.15-.64-.15-1.01,0-.42,.06-.78,.17-1.08,.11-.3,.28-.53,.49-.69,.22-.16,.48-.24,.8-.24,.34,0,.62,.09,.83,.26,.21,.18,.37,.41,.46,.71,.1,.3,.15,.64,.15,1.02,0,.41-.05,.77-.16,1.06-.11,.3-.27,.53-.49,.69-.21,.16-.48,.24-.79,.24Zm6.72-3.25l-1.12,3.89h-.91l-1.6-5.27h.86l1.19,4.05h.08l1.17-4.05h.7l1.21,4.04h.08l1.14-4.04h.87l-1.57,5.27h-.91l-1.18-3.89Z"/></g></g></svg>